<svg xmlns="http://www.w3.org/2000/svg" viewBox="0 0 200 200" width="200" height="200">
  <defs>
    <linearGradient id="tealGrad" x1="0%" y1="0%" x2="100%" y2="100%">
      <stop offset="0%" style="stop-color:#2dd4bf;stop-opacity:1" />
      <stop offset="100%" style="stop-color:#14b8a6;stop-opacity:1" />
    </linearGradient>
  </defs>
  <circle cx="100" cy="100" r="88" fill="none" stroke="url(#tealGrad)" stroke-width="2.5" opacity="0.4"/>
  <ellipse cx="100" cy="100" rx="70" ry="88" fill="none" stroke="url(#tealGrad)" stroke-width="2" opacity="0.25" transform="rotate(25, 100, 100)"/>
  <circle cx="100" cy="90" r="6" fill="url(#tealGrad)"/>
  <line x1="100" y1="90" x2="65" y2="115" stroke="#2dd4bf" stroke-width="1.5" opacity="0.5"/>
  <line x1="100" y1="90" x2="135" y2="115" stroke="#2dd4bf" stroke-width="1.5" opacity="0.5"/>
  <line x1="100" y1="90" x2="100" y2="55" stroke="#2dd4bf" stroke-width="1.5" opacity="0.5"/>
  <line x1="65" y1="115" x2="135" y2="115" stroke="#2dd4bf" stroke-width="1.5" opacity="0.3"/>
  <line x1="65" y1="115" x2="80" y2="145" stroke="#2dd4bf" stroke-width="1.5" opacity="0.3"/>
  <line x1="135" y1="115" x2="120" y2="145" stroke="#2dd4bf" stroke-width="1.5" opacity="0.3"/>
  <line x1="80" y1="145" x2="120" y2="145" stroke="#2dd4bf" stroke-width="1.5" opacity="0.3"/>
  <circle cx="65" cy="115" r="4.5" fill="url(#tealGrad)" opacity="0.8"/>
  <circle cx="135" cy="115" r="4.5" fill="url(#tealGrad)" opacity="0.8"/>
  <circle cx="100" cy="55" r="4.5" fill="url(#tealGrad)" opacity="0.8"/>
  <circle cx="80" cy="145" r="3.5" fill="url(#tealGrad)" opacity="0.6"/>
  <circle cx="120" cy="145" r="3.5" fill="url(#tealGrad)" opacity="0.6"/>
  <rect x="140" y="42" width="12" height="6" rx="1" fill="url(#tealGrad)" opacity="0.7" transform="rotate(-15, 146, 45)"/>
  <rect x="152" y="40" width="8" height="10" rx="1.5" fill="url(#tealGrad)" opacity="0.9" transform="rotate(-15, 156, 45)"/>
  <rect x="160" y="42" width="12" height="6" rx="1" fill="url(#tealGrad)" opacity="0.7" transform="rotate(-15, 166, 45)"/>
  <path d="M148 55 Q142 62 136 58" fill="none" stroke="#2dd4bf" stroke-width="1.2" opacity="0.4"/>
  <path d="M145 60 Q138 68 130 63" fill="none" stroke="#2dd4bf" stroke-width="1.2" opacity="0.25"/>
</svg>
